PathFileType	4	(X/Y/Z)	/Users/niels/Desktop/University/Third Semester/Perception and Action/Exam/Gymnastics Motion Tracking/Code for Gym Tracking/Analyzed Data/Webcam_Backflip/id10_1_baseline_Sports2D/id10_1_baseline_Sports2D_px_person00.trc
DataRate	CameraRate	NumFrames	NumMarkers	Units	OrigDataRate	OrigDataStartFrame	OrigNumFrames
29.705882352941178	29.705882352941178	12	22	m	29.705882352941178	38	102
Frame#	Time	Hip			RHip			RKnee			RAnkle			RBigToe			RSmallToe			RHeel			LHip			LKnee			LAnkle			LBigToe			LSmallToe			LHeel			Neck			Head			Nose			RShoulder			RElbow			RWrist			LShoulder			LElbow			LWrist		
		X1	Y1	Z1	X2	Y2	Z2	X3	Y3	Z3	X4	Y4	Z4	X5	Y5	Z5	X6	Y6	Z6	X7	Y7	Z7	X8	Y8	Z8	X9	Y9	Z9	X10	Y10	Z10	X11	Y11	Z11	X12	Y12	Z12	X13	Y13	Z13	X14	Y14	Z14	X15	Y15	Z15	X16	Y16	Z16	X17	Y17	Z17	X18	Y18	Z18	X19	Y19	Z19	X20	Y20	Z20	X21	Y21	Z21	X22	Y22	Z22
38	1.2792079207920792	0.9037172108341508	-0.56255529762431	0.0	0.9048768775430799	-0.5694749287343751	0.0	0.9054506327706064	-0.809403955428945	0.0	0.8665299621410739	-1.0317436511719824	0.0	0.965836358177844	-1.0526558366327345	0.0	0.9459500584560577	-1.0652198060818645	0.0	0.8431965012875494	-1.059514101765183	0.0	0.8985558714505024	-0.5684494814585546	0.0	0.8979638357229839	-0.7997596060081887	0.0	0.8670673524781405	-1.0124935154047001	0.0	0.9664042695818794	-1.0270927413314868	0.0	0.9506900117374133	-1.0266874720218864	0.0	0.8347520942316571	-1.0355322810581111	0.0	0.9000984943096498	-0.24192453918873966	0.0	0.9225720295705188	-0.1009872214028907	0.0	0.9532036206505462	-0.17907512543264714	0.0	0.8947871785645283	-0.2709793255782879	0.0	1.0594931252836592	-0.22694859297933076	0.0	1.118840053720461	-0.10992782022598525	0.0	0.8807811307591601	-0.2701909830051867	0.0	1.0241235695713948	-0.22975599495667415	0.0	1.1179210253589353	-0.43366187129955786	0.0
39	1.312871287128713	0.9045283838584126	-0.5625226423941942	0.0	0.9051014169980366	-0.5689284345486688	0.0	0.907408622342532	-0.8089427405337796	0.0	0.8675769352822932	-1.0331499434369436	0.0	0.9677234902578143	-1.053767246618297	0.0	0.9473786469837056	-1.0663908501267152	0.0	0.8438255398079306	-1.0606395809934517	0.0	0.8988043422194141	-0.5678643927777078	0.0	0.8976615666111083	-0.7995384214826804	0.0	0.8673266868448744	-1.0132136119015074	0.0	0.9672137355416595	-1.0262986959218963	0.0	0.951521784072735	-1.0253827467359535	0.0	0.8341019873690276	-1.0363987504521186	0.0	0.9011932630019212	-0.2423825557571402	0.0	0.9236109407712229	-0.10089699956006565	0.0	0.9532922865227147	-0.17965715840161933	0.0	0.8945694490724209	-0.2710976714951774	0.0	1.060961475128118	-0.22783429339008768	0.0	1.120453552168517	-0.11126237554226885	0.0	0.8825809508751123	-0.2702761318156027	0.0	1.024146436669887	-0.22891330598193832	0.0	1.1184792920310995	-0.4342828149750971	0.0
40	1.3465346534653466	0.9053791342172561	-0.5624957119346888	0.0	0.9054493875956717	-0.5684794653985543	0.0	0.9093899788397435	-0.8082820517461629	0.0	0.868510055269097	-1.0341923040011916	0.0	0.9692326695208144	-1.054957812187815	0.0	0.9484867052635375	-1.0675306544659788	0.0	0.844372650557519	-1.06160860684721	0.0	0.8993439540037246	-0.5674524008134441	0.0	0.897578918483973	-0.799323772886916	0.0	0.8674354295265855	-1.0138617591328172	0.0	0.967671796135499	-1.0257437602602582	0.0	0.9521269870662646	-1.0243064854435866	0.0	0.8332800230362801	-1.0370109368105216	0.0	0.9024764526207236	-0.2429555726454145	0.0	0.9248790523649812	-0.10083384746761437	0.0	0.9538274608580514	-0.18024187006672676	0.0	0.8943963924688672	-0.27137062841407994	0.0	1.0620103429475551	-0.2287483534969525	0.0	1.1221843787929633	-0.112413312704712	0.0	0.8853387264686244	-0.2704428990584	0.0	1.024618661958399	-0.228078606670922	0.0	1.119291864362725	-0.4309048761611285	0.0
41	1.3801980198019803	0.9062179842580649	-0.5625805938205224	0.0	0.9057681690661492	-0.5682385084991799	0.0	0.9113133904679052	-0.8074100823922298	0.0	0.8690897228153711	-1.0344781790941768	0.0	0.969922812025874	-1.05591275178204	0.0	0.9489102672123638	-1.0682490335546033	0.0	0.8445859462072081	-1.0620129043334279	0.0	0.9002511961822787	-0.5673515576297175	0.0	0.8984665997829484	-0.7990505460354903	0.0	0.867326474788222	-1.0139986978843982	0.0	0.9674751159132955	-1.0253193594327743	0.0	0.9522745641410418	-1.0233856745278516	0.0	0.8320863132977644	-1.0369965242161185	0.0	0.9040160759945274	-0.24362524431536486	0.0	0.9263542318463621	-0.10098094956690604	0.0	0.9548460444533104	-0.18078024916357024	0.0	0.8943656662709719	-0.2719131780069705	0.0	1.0626636446009965	-0.22960595147697344	0.0	1.1239982185088622	-0.11336583373131018	0.0	0.8891387661970784	-0.2708117471314209	0.0	1.025611874484362	-0.22783531620536732	0.0	1.1201895065139524	-0.4200476488576281	0.0
42	1.413861386138614	0.9070252893055161	-0.5629559616333831	0.0	0.9059546135013964	-0.5683548955450111	0.0	0.9130840132179902	-0.8064422164566482	0.0	0.869231785694328	-1.033859586919816	0.0	0.9696957290653682	-1.0564012948693926	0.0	0.9485272391218174	-1.0683276594008593	0.0	0.8443326889438616	-1.0615859963870404	0.0	0.9015781638999923	-0.5676246966378308	0.0	0.9015093622950994	-0.7986591574283507	0.0	0.8671228206715578	-1.0132169967322904	0.0	0.9666380517990354	-1.0249425914740724	0.0	0.952028682895856	-1.0224237616547893	0.0	0.8305688262289328	-1.0360625888410715	0.0	0.9058566634530937	-0.24435358660208822	0.0	0.9279923610612162	-0.10149416622801835	0.0	0.9562686168709222	-0.18126158827829447	0.0	0.8946131460819828	-0.2728296189723223	0.0	1.063053459414724	-0.23044693149331788	0.0	1.125842702702207	-0.11418861303097014	0.0	0.8938763142963562	-0.2715189431053057	0.0	1.0272102867823092	-0.2291815732005032	0.0	1.1207066811954287	-0.3981685457866301	0.0
43	1.4475247524752477	0.9078851795209617	-0.5638051737808539	0.0	0.9060117882363857	-0.5689225708122366	0.0	0.9145376519235674	-0.8055609504286256	0.0	0.868934325404944	-1.0323993589467224	0.0	0.9686378922120316	-1.0562732902763514	0.0	0.9474074715399476	-1.0677274688020466	0.0	0.8436258257622469	-1.0602993602500124	0.0	0.9035210323246825	-0.5682912011859615	0.0	0.9082549302228047	-0.7981178288326845	0.0	0.8671960420361203	-1.0112443140994367	0.0	0.965480959507134	-1.0244998291090313	0.0	0.9517020075305019	-1.0211991334003419	0.0	0.8291686859943992	-1.0339701368037297	0.0	0.9080193368883966	-0.2451331263961118	0.0	0.9297446058043369	-0.10241200559181989	0.0	0.9579976137404506	-0.181676014888965	0.0	0.8953254462078387	-0.27415641796623674	0.0	1.0633532972966617	-0.23144746836370825	0.0	1.1277298216139389	-0.1149514386036616	0.0	0.8994744326161541	-0.27263013771639477	0.0	1.029506462302963	-0.23367977880152194	0.0	1.1199642897842224	-0.3638900173854387	0.0
44	1.4811881188118812	0.9090032275290376	-0.5651657885627721	0.0	0.9060403917238513	-0.5698542261629995	0.0	0.9154244975617235	-0.8048590341967666	0.0	0.8681937968094274	-1.0302354430452887	0.0	0.9668448988734523	-1.0554030176276834	0.0	0.9456960649175004	-1.0664798977783772	0.0	0.8425814298819415	-1.0583136960071604	0.0	0.9064508661089382	-0.5692944927420965	0.0	0.9201372124438905	-0.7973263944396566	0.0	0.8682248129189076	-1.0078958955169943	0.0	0.9645416756442403	-1.0237987460817561	0.0	0.9517788267312931	-1.0195586315779679	0.0	0.8288062773556498	-1.0305376792032737	0.0	0.9106001674400472	-0.24603879702538942	0.0	0.9315819674912175	-0.10360695314926563	0.0	0.9599539326342093	-0.18197097391410558	0.0	0.8966764549770887	-0.2758181833044028	0.0	1.0637663894767353	-0.23276523031048443	0.0	1.129821280654629	-0.11561848886155547	0.0	0.9060241334046074	-0.27410211730402545	0.0	1.0323572439457067	-0.2432617623648324	0.0	1.1166559819875423	-0.3219797175297679	0.0
45	1.5148514851485149	0.9106469321896128	-0.5668354467729354	0.0	0.9062158492889136	-0.5708475371460345	0.0	0.9155133555090764	-0.8042453073320459	0.0	0.8669989627450608	-1.0274855605199664	0.0	0.9643633097866073	-1.0537522845206622	0.0	0.9435344236238455	-1.06464721816576	0.0	0.8413328840319414	-1.0558492696031962	0.0	0.9108201932360704	-0.5704481427728398	0.0	0.9374135766885534	-0.7960939147279561	0.0	0.8711775595481881	-1.0030707253028188	0.0	0.9646101156233214	-1.0227517194354556	0.0	0.9529802519185121	-1.0175641473776478	0.0	0.8308759759933964	-1.0257426160306737	0.0	0.9138049754838552	-0.24716192479758703	0.0	0.9335835170255503	-0.10483569592514357	0.0	0.9621149053346896	-0.18206457549417054	0.0	0.8987402686684847	-0.2775910132484529	0.0	1.0644987021914554	-0.23439933401645105	0.0	1.1323786762087231	-0.11603137900263652	0.0	0.9137287666675677	-0.27578138604491076	0.0	1.0351516880690788	-0.2595152226667668	0.0	1.109227486752852	-0.28604698009912244	0.0
46	1.5485148514851486	0.9130595791158412	-0.5684609092413633	0.0	0.906759456634966	-0.5715299774671984	0.0	0.914818763509057	-0.8035988495907718	0.0	0.8653688475068788	-1.0244093105254457	0.0	0.9612363385215933	-1.0516036276751988	0.0	0.9410263226770578	-1.0624989513097116	0.0	0.8399956368033148	-1.0532214480342623	0.0	0.9169698003834723	-0.5714720853179034	0.0	0.9582114567953519	-0.7943459805881345	0.0	0.8771236039611889	-0.9969990656066353	0.0	0.9668437527418475	-1.0215839076100073	0.0	0.9563496899054208	-1.015567368530528	0.0	0.8370081831262809	-1.019976371348431	0.0	0.9178393241881637	-0.2485001332037866	0.0	0.9359683140794588	-0.10589498959326436	0.0	0.9645625120815969	-0.18194488129573858	0.0	0.9014669394006856	-0.2791723809935566	0.0	1.0657720756064593	-0.23618739950032727	0.0	1.1355893881187296	-0.11606475356092022	0.0	0.9226091714928512	-0.2774727001290117	0.0	1.0367527508748302	-0.2823403825422202	0.0	1.0964083350761455	-0.2730161477167032	0.0
47	1.5821782178217823	0.9163996201537021	-0.5697788116712849	0.0	0.9079095023056611	-0.5717064914635587	0.0	0.9137493400685592	-0.8030388740437339	0.0	0.8634088430345486	-1.0216669558328542	0.0	0.9575634915220755	-1.0496822693115477	0.0	0.9382628876616587	-1.0606678683682722	0.0	0.8386936777466973	-1.0509892781079537	0.0	0.9248932988976848	-0.5721466927908664	0.0	0.9792735924068307	-0.7923274519244814	0.0	0.8870088590099229	-0.9905535325233122	0.0	0.9727656526553151	-1.020822991501668	0.0	0.9632031616546464	-1.0141262558935653	0.0	0.8486049827913882	-1.0142518769199773	0.0	0.9227476003106994	-0.24998133686722815	0.0	0.9389755507653145	-0.1067194475608681	0.0	0.9674639853141823	-0.18172827646871872	0.0	0.9047726895777041	-0.28034803328938335	0.0	1.0678810367026357	-0.2379239601323398	0.0	1.1395099559637032	-0.11580473637807044	0.0	0.9321946286426268	-0.2790557017907419	0.0	1.0356795517679376	-0.3094001890141148	0.0	1.07821429069003	-0.2913522291484522	0.0
48	1.615841584158416	0.9207238690972716	-0.5707626241184514	0.0	0.909912739097135	-0.571466946383451	0.0	0.9129889461656597	-0.8029329981604609	0.0	0.8613245741268425	-1.0202023151217885	0.0	0.9535537300100985	-1.0488989217125244	0.0	0.935381027504996	-1.0600154886242097	0.0	0.8375476690550326	-1.0498548969320467	0.0	0.9341468841957807	-0.5724478210345262	0.0	0.9981155713799206	-0.7904795009852048	0.0	0.9016018634846171	-0.9851267787966003	0.0	0.9841322792401097	-1.0210284873925402	0.0	0.9750145706326552	-1.0137633694911863	0.0	0.8663971257410295	-1.009958597317098	0.0	0.9283774088070353	-0.25157587122161995	0.0	0.9427893055524826	-0.10733716153756831	0.0	0.9710498354802605	-0.1816097087923383	0.0	0.9086887911109321	-0.28104621429915655	0.0	1.0711421306782631	-0.2394615286335268	0.0	1.1441826738181091	-0.11552977185448915	0.0	0.9414488070084277	-0.28051147266099236	0.0	1.0304968791454565	-0.3379014747789913	0.0	1.0567475184444377	-0.3357112397653282	0.0
49	1.6495049504950496	0.9260068259581379	-0.5715568624601947	0.0	0.913014451880099	-0.5710826876703771	0.0	0.9131819939197847	-0.8036156686397363	0.0	0.8593974721889173	-1.0207562376619816	0.0	0.9496776196767165	-1.0499466789700005	0.0	0.9326496579457444	-1.0613588415833202	0.0	0.8366590033416199	-1.0503049409708909	0.0	0.944017663646484	-0.572536788837857	0.0	1.014078245947278	-0.789067550338132	0.0	0.9214994083822098	-0.981962313571343	0.0	1.0025983311380198	-1.0223044990371146	0.0	0.9931993664667008	-1.014545592540143	0.0	0.8902988898804154	-1.008149698179498	0.0	0.9345116250762656	-0.2533246299376042	0.0	0.9475744594273717	-0.10785333168040348	0.0	0.9756607236864776	-0.18183509891029218	0.0	0.9133909440900406	-0.28130550167639057	0.0	1.0756907218250475	-0.2407624647796045	0.0	1.1496999066891995	-0.1155483179526367	0.0	0.9492664778873583	-0.2818714065491902	0.0	1.0206725697106043	-0.36553212071467256	0.0	1.0358094447743047	-0.39187104525781247	0.0
